<?xml version="1.0" encoding="UTF-8" ?>
<!DOCTYPE svg PUBLIC "-//W3C//DTD SVG 1.1//EN" "http://www.w3.org/Graphics/SVG/1.1/DTD/svg11.dtd">
<svg width="1757pt" height="339pt" viewBox="0 0 1757 339" version="1.1" xmlns="http://www.w3.org/2000/svg">
<g id="#fafafaff">
</g>
<g id="#212121ff">
<path fill="#212121" opacity="1.00" d=" M 763.49 16.28 C 780.67 16.19 797.86 16.30 815.04 16.22 C 816.18 16.43 818.26 15.76 818.62 17.38 C 831.81 53.50 844.88 89.66 858.09 125.77 C 863.26 139.72 867.40 154.02 871.78 168.23 C 873.04 172.18 873.87 176.33 875.94 179.97 C 881.65 165.09 885.27 149.49 890.48 134.43 C 904.45 95.04 918.44 55.67 932.43 16.29 C 950.68 16.20 968.94 16.27 987.20 16.25 C 987.30 98.50 987.25 180.74 987.23 262.98 C 972.23 263.01 957.23 263.03 942.24 262.97 C 942.26 211.31 942.24 159.65 942.25 108.00 C 942.19 103.59 942.47 99.16 941.96 94.77 C 936.07 109.62 931.51 125.00 926.00 140.01 C 913.68 173.49 901.48 207.03 889.12 240.50 C 879.64 240.55 870.17 240.41 860.71 240.58 C 853.15 221.20 846.24 201.57 838.91 182.11 C 831.65 162.02 823.75 142.16 817.12 121.85 C 814.06 113.22 811.54 104.38 808.05 95.92 C 807.37 109.26 807.93 122.64 807.75 136.00 C 807.76 178.32 807.73 220.64 807.76 262.97 C 793.00 263.01 778.23 263.06 763.47 262.94 C 763.53 180.72 763.49 98.50 763.49 16.28 Z" />
<path fill="#212121" opacity="1.00" d=" M 62.24 20.03 C 106.90 19.97 151.56 19.99 196.23 20.02 C 196.27 25.67 196.27 31.33 196.23 36.98 C 158.23 37.05 120.23 36.94 82.24 37.03 C 82.27 68.27 82.22 99.50 82.26 130.74 C 114.42 130.80 146.58 130.68 178.75 130.80 C 178.76 136.45 178.76 142.09 178.74 147.74 C 146.58 147.80 114.42 147.68 82.26 147.80 C 82.22 186.19 82.28 224.59 82.23 262.98 C 75.56 263.01 68.90 263.03 62.24 262.97 C 62.26 181.99 62.26 101.01 62.24 20.03 Z" />
<path fill="#212121" opacity="1.00" d=" M 237.47 20.06 C 243.90 19.95 250.33 19.99 256.76 20.03 C 256.74 92.35 256.76 164.67 256.75 236.98 C 256.87 241.06 257.04 245.73 260.15 248.79 C 263.24 251.45 267.52 250.19 271.17 249.94 C 272.26 255.10 273.40 260.27 274.05 265.52 C 265.56 267.75 255.71 268.79 247.85 264.10 C 240.15 259.18 237.89 249.41 237.52 240.86 C 237.45 167.26 237.55 93.66 237.47 20.06 Z" />
<path fill="#212121" opacity="1.00" d=" M 1075.71 83.72 C 1088.92 75.58 1104.44 71.03 1120.00 71.48 C 1139.59 71.26 1159.74 78.18 1173.44 92.55 C 1188.31 107.88 1194.94 129.38 1196.49 150.28 C 1197.06 161.22 1197.07 172.30 1194.74 183.06 C 1156.38 183.51 1118.00 183.12 1079.63 183.25 C 1081.12 196.61 1086.77 210.01 1097.29 218.75 C 1108.33 228.08 1123.52 231.02 1137.63 229.66 C 1150.35 228.61 1162.35 223.54 1173.11 216.89 C 1178.85 226.89 1184.34 237.03 1189.93 247.11 C 1161.12 267.10 1122.52 274.04 1089.27 261.76 C 1072.71 255.68 1058.11 244.34 1048.30 229.66 C 1032.91 206.82 1029.24 177.83 1033.05 151.01 C 1037.02 123.98 1052.08 98.06 1075.71 83.72 M 1093.16 120.16 C 1084.71 128.17 1080.42 139.61 1078.86 150.95 C 1104.15 151.05 1129.45 150.99 1154.74 150.98 C 1154.47 140.52 1152.80 129.40 1146.09 120.97 C 1140.41 113.64 1131.07 110.05 1122.01 109.69 C 1111.49 108.96 1100.66 112.68 1093.16 120.16 Z" />
<path fill="#212121" opacity="1.00" d=" M 1286.03 96.66 C 1297.99 85.04 1312.33 74.70 1329.21 72.16 C 1343.73 70.26 1359.50 71.74 1371.94 80.10 C 1380.55 85.73 1386.46 94.51 1390.76 103.70 C 1401.32 92.75 1412.79 82.02 1427.00 76.04 C 1438.97 70.85 1452.55 70.33 1465.22 72.93 C 1476.11 75.16 1486.16 81.21 1493.02 90.00 C 1504.02 104.10 1507.24 122.51 1507.98 139.95 C 1508.02 180.96 1508.00 221.98 1507.99 262.99 C 1491.66 263.01 1475.33 263.00 1459.01 262.99 C 1458.99 230.99 1459.00 199.00 1459.00 167.00 C 1458.98 157.64 1459.20 148.24 1458.09 138.93 C 1457.11 131.83 1455.12 124.32 1449.80 119.19 C 1443.81 113.76 1434.99 112.71 1427.33 114.27 C 1416.46 116.80 1407.72 124.30 1399.82 131.78 C 1398.69 133.05 1396.79 134.09 1397.03 136.04 C 1396.96 178.36 1397.03 220.68 1396.99 262.99 C 1380.66 263.00 1364.33 263.01 1348.01 262.99 C 1347.99 233.33 1348.00 203.66 1348.00 174.00 C 1347.89 162.59 1348.39 151.14 1347.19 139.78 C 1346.24 132.18 1344.21 124.00 1338.26 118.72 C 1330.72 112.60 1319.70 112.34 1310.99 115.94 C 1301.41 119.98 1293.40 126.98 1286.30 134.42 C 1285.56 140.89 1286.21 147.48 1286.00 154.00 C 1285.99 190.33 1286.01 226.66 1285.99 262.99 C 1269.74 262.99 1253.49 263.04 1237.24 262.97 C 1237.27 200.73 1237.23 138.49 1237.26 76.26 C 1253.49 76.23 1269.73 76.27 1285.97 76.24 C 1286.06 83.04 1285.94 89.85 1286.03 96.66 Z" />
<path fill="#212121" opacity="1.00" d=" M 1623.35 72.32 C 1643.00 69.53 1663.63 73.12 1680.79 83.22 C 1695.96 91.97 1708.20 105.52 1715.68 121.32 C 1724.98 140.25 1727.34 161.91 1725.49 182.73 C 1723.40 204.14 1715.01 225.35 1699.94 240.95 C 1687.41 254.19 1670.55 263.19 1652.62 266.40 C 1636.19 269.32 1618.91 267.82 1603.40 261.60 C 1584.31 254.09 1568.18 239.49 1558.67 221.33 C 1547.88 201.34 1545.10 177.90 1547.42 155.54 C 1549.47 136.70 1556.35 118.14 1568.39 103.39 C 1581.92 86.58 1602.00 75.30 1623.35 72.32 M 1628.36 112.48 C 1616.90 114.84 1607.92 123.93 1603.43 134.43 C 1598.50 145.23 1597.07 157.26 1596.83 169.02 C 1596.85 179.88 1597.99 190.91 1601.79 201.16 C 1604.33 207.98 1608.11 214.51 1613.64 219.34 C 1626.06 230.47 1646.86 230.44 1659.22 219.24 C 1666.55 212.71 1670.78 203.42 1673.16 194.04 C 1676.18 181.65 1676.52 168.70 1675.07 156.06 C 1673.43 143.12 1669.33 129.60 1659.55 120.43 C 1651.39 112.64 1639.21 110.05 1628.36 112.48 Z" />
<path fill="#212121" opacity="1.00" d=" M 378.38 81.53 C 393.90 78.99 410.28 80.73 424.56 87.50 C 440.73 94.95 453.77 108.46 461.58 124.38 C 471.39 143.94 473.67 166.46 471.66 188.02 C 469.58 208.39 461.98 228.71 447.69 243.67 C 436.31 255.84 420.76 263.94 404.30 266.44 C 388.51 268.77 371.90 266.71 357.59 259.45 C 340.14 250.98 326.74 235.32 319.54 217.45 C 311.57 197.81 310.19 175.99 312.98 155.14 C 315.87 134.84 324.63 114.89 339.77 100.76 C 350.40 90.76 364.00 84.01 378.38 81.53 M 383.35 98.30 C 369.27 100.43 356.56 108.77 348.17 120.16 C 336.27 136.07 331.85 156.44 332.11 176.02 C 332.42 193.14 336.36 210.63 345.99 225.01 C 353.39 236.08 364.43 245.02 377.43 248.47 C 393.16 252.97 410.88 249.79 423.97 239.94 C 436.95 230.43 445.07 215.56 449.02 200.20 C 453.55 181.56 453.24 161.65 447.62 143.28 C 442.97 128.51 434.12 114.51 420.87 106.08 C 409.92 98.89 396.24 96.22 383.35 98.30 Z" />
<path fill="#212121" opacity="1.00" d=" M 499.63 85.04 C 506.62 85.00 513.61 84.90 520.60 85.10 C 527.11 109.02 533.79 132.89 540.38 156.78 C 544.94 173.82 550.10 190.70 554.10 207.89 C 556.88 219.26 559.66 230.64 562.13 242.09 C 562.38 243.58 563.13 244.91 563.88 246.21 C 569.10 229.19 572.94 211.77 577.70 194.61 C 587.98 158.12 598.36 121.66 608.57 85.15 C 615.76 84.83 622.96 85.06 630.15 85.01 C 636.59 107.53 642.87 130.09 649.28 152.61 C 654.93 173.07 661.08 193.38 666.18 213.98 C 669.13 224.70 671.64 235.58 675.25 246.11 C 675.90 244.72 676.54 243.32 676.93 241.83 C 689.87 189.35 704.73 137.37 718.55 85.12 C 725.00 84.89 731.46 85.00 737.92 85.05 C 721.30 144.38 704.56 203.67 687.89 262.98 C 679.42 262.97 670.95 263.11 662.50 262.90 C 651.82 224.16 640.80 185.51 630.03 146.80 C 626.56 133.82 623.57 120.72 620.08 107.74 C 619.81 106.46 619.24 105.26 618.06 104.59 C 615.29 115.99 612.77 127.46 609.61 138.77 C 607.43 147.09 604.53 155.20 602.37 163.52 C 593.39 196.64 584.23 229.71 575.35 262.86 C 567.41 263.12 559.45 263.04 551.50 262.90 C 534.38 203.57 516.73 144.38 499.63 85.04 Z" />
</g>
</svg>
